<?xml version="1.0" standalone="no"?>
<!DOCTYPE svg PUBLIC "-//W3C//DTD SVG 20010904//EN"
 "http://www.w3.org/TR/2001/REC-SVG-20010904/DTD/svg10.dtd">
<svg version="1.0" xmlns="http://www.w3.org/2000/svg"
 width="1920.000000pt" height="1920.000000pt" viewBox="0 0 1920.000000 1920.000000"
 preserveAspectRatio="xMidYMid meet">

<g transform="translate(0.000000,1920.000000) scale(0.100000,-0.100000)"
fill="#000000" stroke="none">
<path d="M5688 16214 c-118 -21 -256 -78 -358 -147 -66 -45 -186 -163 -236
-233 -59 -82 -119 -212 -146 -314 l-23 -85 0 -5285 0 -5285 27 -96 c112 -408
442 -714 845 -784 70 -12 202 -15 709 -15 l624 0 0 -422 c0 -260 4 -437 10
-460 22 -78 110 -130 188 -109 24 7 113 72 257 187 121 97 225 178 232 181 6
3 117 -77 245 -176 148 -115 247 -185 271 -192 77 -21 165 31 187 109 6 23 10
200 10 460 l0 422 2818 0 c2775 0 2817 0 2849 20 59 36 90 108 73 171 -6 20
-36 68 -68 106 -152 181 -263 395 -307 587 -70 311 37 644 304 950 36 41 63
82 66 100 3 17 4 2171 3 4786 l-3 4755 -23 80 c-28 100 -90 230 -146 309 -51
71 -170 188 -239 235 -68 47 -198 105 -292 133 l-80 23 -3860 2 c-3259 1
-3872 -1 -3937 -13z m7812 -317 c174 -59 315 -177 389 -327 77 -158 71 297 71
-4847 l0 -4623 -3970 0 -3970 0 -2 3373 c-3 3179 -4 3374 -20 3404 -57 104
-213 106 -273 3 -20 -35 -20 -43 -23 -3426 l-2 -3391 -43 -12 c-115 -34 -279
-129 -375 -215 l-52 -48 2 4809 3 4808 28 78 c80 229 284 399 512 430 17 2
1749 4 3850 3 3686 -1 3822 -2 3875 -19z m290 -10113 c0 -3 -18 -37 -40 -75
-23 -38 -56 -104 -74 -146 l-33 -78 -3601 -5 -3601 -5 -27 -21 c-44 -32 -66
-68 -71 -115 -6 -58 28 -125 77 -151 33 -17 169 -18 3592 -18 l3557 0 0 -130
0 -130 -3163 0 -3163 0 -34 -23 c-19 -12 -44 -42 -56 -67 -22 -42 -23 -55 -23
-293 l0 -248 -642 3 -643 3 -80 27 c-129 45 -220 101 -310 192 -44 45 -95 107
-114 138 -118 203 -141 424 -66 641 88 254 332 458 593 496 63 9 7922 14 7922
5z m-5580 -1754 c0 -313 -3 -570 -6 -570 -3 0 -67 48 -142 107 -75 59 -153
115 -172 125 -38 20 -85 23 -123 9 -20 -8 -225 -165 -299 -229 -17 -14 -18 13
-18 556 l0 572 380 0 380 0 0 -570z m5470 493 c18 -43 53 -113 77 -155 24 -43
43 -80 43 -83 0 -3 -1186 -5 -2635 -5 l-2635 0 0 160 0 160 2558 0 2558 0 34
-77z"/>
<path d="M5800 14853 c-8 -3 -29 -19 -47 -36 -53 -50 -55 -76 -51 -652 l3
-520 23 -37 c24 -39 91 -78 133 -78 41 0 112 42 134 80 19 34 20 54 23 568 2
347 -1 546 -8 571 -6 24 -25 53 -50 75 -36 32 -46 36 -93 35 -28 0 -59 -3 -67
-6z"/>
<path d="M6785 14621 c-40 -24 -60 -49 -74 -90 -8 -24 -11 -293 -11 -960 l0
-927 23 -44 c12 -24 35 -53 50 -64 l28 -21 3141 -3 c2883 -2 3143 -1 3174 14
19 9 44 31 57 48 l22 31 3 965 c2 949 2 966 -18 998 -11 18 -34 41 -52 52 -33
20 -57 20 -3173 20 -3040 0 -3141 -1 -3170 -19z m6105 -1046 l0 -755 -2935 0
-2935 0 0 755 0 755 2935 0 2935 0 0 -755z"/>
<path d="M8324 11509 c-46 -13 -90 -59 -105 -107 -24 -81 25 -168 107 -191 52
-14 3203 -15 3254 -1 20 5 51 26 70 45 33 34 35 40 35 105 0 65 -2 71 -35 105
-19 19 -50 40 -70 45 -46 13 -3212 12 -3256 -1z"/>
<path d="M7194 10876 c-17 -8 -44 -31 -60 -51 -23 -30 -28 -48 -28 -91 0 -58
17 -90 68 -128 l27 -21 2742 -3 c2595 -2 2744 -1 2777 15 108 55 108 217 0
274 -34 18 -126 19 -2765 19 -2277 -1 -2735 -3 -2761 -14z"/>
</g>
</svg>
